<?xml version="1.0" encoding="iso-8859-1"?>
<!-- Generator: Adobe Illustrator 19.0.0, SVG Export Plug-In . SVG Version: 6.00 Build 0)  -->
<svg version="1.1" id="Layer_1" xmlns="http://www.w3.org/2000/svg" xmlns:xlink="http://www.w3.org/1999/xlink" x="0px" y="0px"
	 viewBox="0 0 512 512" style="enable-background:new 0 0 512 512;" xml:space="preserve">
<path style="fill:#93C7EF;" d="M310.622,132.987c0-0.055-0.003-0.109-0.003-0.164c-0.066,0.055-0.128,0.109-0.194,0.164
	c0-60.667-38.692-112.29-92.742-131.557v116.383l-46.894,34.836l-46.892-34.836V1.43c-9.228,3.29-18.009,7.52-26.226,12.581
	l-4.91,3.327C54.308,43.388,31.35,86.622,31.35,132.987c0,47.487,23.956,91.246,63.266,116.918v185.724
	c0,41.491,32.485,75.019,73.954,76.33c0.834,0.028,1.662,0.04,2.492,0.04c19.92-0.001,38.683-7.59,53.063-21.523
	c14.981-14.513,23.23-33.993,23.23-54.86l-0.102-185.649C286.628,224.309,310.622,180.525,310.622,132.987z"/>
<path style="fill:#78B9EB;" d="M168.571,511.96c0.834,0.028,1.662,0.04,2.492,0.04c19.92-0.001,38.683-7.59,53.063-21.523
	c14.981-14.513,23.23-33.993,23.23-54.86l-0.102-185.649c39.373-25.661,63.368-69.444,63.368-116.983
	c0-0.055-0.003-0.109-0.003-0.164c-0.066,0.055-0.128,0.109-0.194,0.164c0-60.667-38.692-112.29-92.742-131.557v116.385
	l-46.894,34.836"/>
<polygon style="fill:#FFFFFF;" points="93.854,432.207 248.119,432.207 248.097,392.311 93.854,392.311 "/>
<polygon style="fill:#93C7EF;" points="430.115,79.792 423.465,0 383.569,0 376.92,79.792 383.569,79.792 383.569,265.973 
	423.465,265.973 423.465,79.792 "/>
<path style="fill:#FFAD41;" d="M479.808,246.025H327.147v189.603c0,41.491,32.486,75.019,73.957,76.33
	c0.831,0.028,1.66,0.04,2.488,0.04c19.923,0,38.686-7.59,53.066-21.525c14.98-14.511,23.229-33.991,23.229-54.854L479.808,246.025z"
	/>
<path style="fill:#FF9811;" d="M401.104,511.96c0.831,0.028,1.66,0.04,2.488,0.04c19.923,0,38.686-7.59,53.066-21.525
	c14.98-14.511,23.229-33.991,23.229-54.854l-0.078-189.595h-76.29"/>
<polygon style="fill:#FFFFFF;" points="326.385,432.207 480.65,432.207 480.627,392.311 326.385,392.311 "/>
<g>
</g>
<g>
</g>
<g>
</g>
<g>
</g>
<g>
</g>
<g>
</g>
<g>
</g>
<g>
</g>
<g>
</g>
<g>
</g>
<g>
</g>
<g>
</g>
<g>
</g>
<g>
</g>
<g>
</g>
</svg>
